<svg width="60" height="60" viewBox="0 0 60 60" fill="none" xmlns="http://www.w3.org/2000/svg">
<path d="M23.125 55L22.125 47C21.5833 46.7917 21.0729 46.5417 20.5938 46.25C20.1146 45.9583 19.6458 45.6458 19.1875 45.3125L11.75 48.4375L4.875 36.5625L11.3125 31.6875C11.2708 31.3958 11.25 31.1146 11.25 30.8438V29.1562C11.25 28.8854 11.2708 28.6042 11.3125 28.3125L4.875 23.4375L11.75 11.5625L19.1875 14.6875C19.6458 14.3542 20.125 14.0417 20.625 13.75C21.125 13.4583 21.625 13.2083 22.125 13L23.125 5H36.875L37.875 13C38.4167 13.2083 38.9271 13.4583 39.4062 13.75C39.8854 14.0417 40.3542 14.3542 40.8125 14.6875L48.25 11.5625L55.125 23.4375L48.6875 28.3125C48.7292 28.6042 48.75 28.8854 48.75 29.1562V30.8438C48.75 31.1146 48.7083 31.3958 48.625 31.6875L55.0625 36.5625L48.1875 48.4375L40.8125 45.3125C40.3542 45.6458 39.875 45.9583 39.375 46.25C38.875 46.5417 38.375 46.7917 37.875 47L36.875 55H23.125ZM27.5 50H32.4375L33.3125 43.375C34.6042 43.0417 35.8021 42.5521 36.9062 41.9062C38.0104 41.2604 39.0208 40.4792 39.9375 39.5625L46.125 42.125L48.5625 37.875L43.1875 33.8125C43.3958 33.2292 43.5417 32.6146 43.625 31.9688C43.7083 31.3229 43.75 30.6667 43.75 30C43.75 29.3333 43.7083 28.6771 43.625 28.0312C43.5417 27.3854 43.3958 26.7708 43.1875 26.1875L48.5625 22.125L46.125 17.875L39.9375 20.5C39.0208 19.5417 38.0104 18.7396 36.9062 18.0938C35.8021 17.4479 34.6042 16.9583 33.3125 16.625L32.5 10H27.5625L26.6875 16.625C25.3958 16.9583 24.1979 17.4479 23.0938 18.0938C21.9896 18.7396 20.9792 19.5208 20.0625 20.4375L13.875 17.875L11.4375 22.125L16.8125 26.125C16.6042 26.75 16.4583 27.375 16.375 28C16.2917 28.625 16.25 29.2917 16.25 30C16.25 30.6667 16.2917 31.3125 16.375 31.9375C16.4583 32.5625 16.6042 33.1875 16.8125 33.8125L11.4375 37.875L13.875 42.125L20.0625 39.5C20.9792 40.4583 21.9896 41.2604 23.0938 41.9062C24.1979 42.5521 25.3958 43.0417 26.6875 43.375L27.5 50ZM30.125 38.75C32.5417 38.75 34.6042 37.8958 36.3125 36.1875C38.0208 34.4792 38.875 32.4167 38.875 30C38.875 27.5833 38.0208 25.5208 36.3125 23.8125C34.6042 22.1042 32.5417 21.25 30.125 21.25C27.6667 21.25 25.5938 22.1042 23.9062 23.8125C22.2188 25.5208 21.375 27.5833 21.375 30C21.375 32.4167 22.2188 34.4792 23.9062 36.1875C25.5938 37.8958 27.6667 38.75 30.125 38.75Z" fill="#E3E3E3"/>
</svg>
